<svg width="265" height="265" viewBox="0 0 265 265" fill="none" xmlns="http://www.w3.org/2000/svg">
<g clip-path="url(#clip0_4704_1071)">
<path d="M132.5 0C205.686 0 265 59.3145 265 132.5C265 205.686 205.686 265 132.5 265C59.3145 265 0 205.686 0 132.5C0 59.3145 59.3145 0 132.5 0ZM120.078 62.1094V132.5C120.078 136.641 122.148 140.522 125.616 142.852L175.304 175.977C180.997 179.807 188.709 178.254 192.539 172.509C196.369 166.764 194.816 159.104 189.071 155.273L144.922 125.875V62.1094C144.922 55.2256 139.384 49.6875 132.5 49.6875C125.616 49.6875 120.078 55.2256 120.078 62.1094Z" fill="#00599C"/>
</g>
<defs>
<clipPath id="clip0_4704_1071">
<rect width="265" height="265" fill="white"/>
</clipPath>
</defs>
</svg>
