<?xml version="1.0" encoding="UTF-8"?>
<svg id="_x30_1" xmlns="http://www.w3.org/2000/svg" version="1.1" viewBox="0 0 1293.22 1543.86">
  <!-- Generator: Adobe Illustrator 29.3.0, SVG Export Plug-In . SVG Version: 2.1.0 Build 146)  -->
  <defs>
    <style>
      .st0 {
        fill: #5d4776;
      }

      .st1 {
        fill: #9bacc9;
      }

      .st2 {
        fill: #3e255a;
      }

      .st3 {
        fill: #d6a787;
      }

      .st4 {
        fill: #7d6c91;
      }

      .st5 {
        fill: #edeff0;
      }

      .st6 {
        fill: #d6e4ef;
      }

      .st7 {
        fill: #c9e6de;
      }

      .st8 {
        fill: #e6eef1;
      }

      .st9 {
        fill: #194868;
      }

      .st10 {
        fill: #002346;
      }

      .st11 {
        fill: #334f6b;
      }

      .st12 {
        fill: #c7a97b;
      }

      .st13 {
        fill: #727a7e;
      }

      .st14 {
        fill: #3d7c77;
      }

      .st15 {
        fill: #fcdcb9;
      }

      .st16 {
        fill: #abb6bc;
      }

      .st17 {
        fill: #00599c;
      }

      .st18 {
        fill: #a4dfc9;
      }

      .st19 {
        fill: #4d9693;
      }

      .st20 {
        fill: #002d4e;
      }

      .st21 {
        fill: #c6dee5;
      }

      .st22 {
        fill: #1b395a;
      }

      .st23 {
        fill: #83aeac;
      }

      .st24 {
        fill: #286f7b;
      }

      .st25 {
        fill: #c65f41;
      }

      .st26 {
        fill: #194d69;
      }

      .st27 {
        fill: #fbd2b2;
      }

      .st28 {
        fill: #99bdd7;
      }

      .st29 {
        fill: #fdfdfd;
      }
    </style>
  </defs>
  <path class="st7" d="M110.08,1152.29c0,12.58,0,25.15.01,37.73.92,1.28,1.85,2.55,2.77,3.83.23-13.76.46-27.53.69-41.29-1.16-.09-2.32-.18-3.48-.27Z"/>
  <path class="st23" d="M175.71,1065.89c-.41-.06-.81-.12-1.22-.18-.17,12.77-.33,25.55-.5,38.33.61.09,1.21.2,1.82.32-.03-12.82-.06-25.64-.1-38.46Z"/>
  <path class="st8" d="M122.3,1398.06c3.83-11.14.74-22.65,1.81-33.94-.61,0-1.21,0-1.82,0,0,11.31,0,22.62,0,33.93Z"/>
  <g>
    <path class="st5" d="M421.21,1026.38c-.97-4.04-1.98-8.06-3.35-11.99-3.89-10.95-10.35-20.68-18-29.36-6.51-7.4-13.78-14.09-21.05-20.72-5.08-4.63-8.53-7.53-15.03-9.69-2.51-.84-2.32-25.7-1.67-37.95,1.24-23.64.2-70.11,0-93.75-.03-3.97-.09-7.94-.04-11.91.03-3.28-.08-6.63-3.17-8.48-2.56-1.54-5.1-2.52-7.77-.74-2.94,1.97-1.61,7.18-1.69,10.24-.41,16.04-1.14,57.35-1.23,73.4-.08,15.15.88,30.88-.05,46.03-.34,5.6.68,12.72.28,16.74-.28,2.79-11.1-1.75-15.62-2.88-4.85-1.21-9.83-2.28-14.08,1.04-.43.73-4.96-3.72-8.24-6.53-5.02-4.19-9.67-5.55-20.01-6.17-3.43-.27-10.42-40.29-10.68-43.86-.15-2.16-.39-4.58-2.66-5.59-2.41-1.08-5.13.63-6.88,2.22-.24.22-2.82,2.58-2.81,2.58,7.89,8.87,6.02,13.52,8.72,25.15,2.51,16.74-1.95,20.65-7.61,21.55-15.16,2.22-28.53,12.56-41.21,21.24-11.55,7.92-23.62,15.39-33.63,25.29-8.32,8.22-14.38,18.36-21.66,27.45-5.82,7.26-12.36,14.1-16.93,22.28-3.27,5.85-10.26,16.32-6.77,23.37,5.39,10.89,24.16,2.68,32.29.61,28.23-7.2,56.24-16.26,81.39-31.99,3.19,16.02,6.38,32.04,9.56,48.05,1.57,7.89,3.14,15.79,4.71,23.68.94,4.73,2.09,15.21,3.59,19.7,1.1,3.29,8.73,3.66,8.54-1.55-1.6-21.46-7.86-45.51-12.11-66.57-2.07-10.26-5.91-27.89-4.26-29.23,5.02-4.09,7.49-6.74,11.9-10.61,6.14-5.39,11.46-9.88,13.52-8.76,5.18,2.81,5.78,23.54,6.33,31.52,1.3,18.87,2.72,37.73,4.16,56.6.37,4.8,1.47,9.5,1.96,14.28.37,3.6-1.34,10.84.24,13.93,1.48,2.9,6.89,2.75,9.13,1.12,1.4-1.02,2.18-2.58,2.14-4.3,2-6.11,4-12.24,6.09-18.65,1.06,6.19,1.35,14.39,1.07,20.67-.05,1.12.31,3.48,1.49,3.91,3.09,1.12,8.1,1.28,8.56-1.49,1.67-10.04.44-27.14.68-32.38.79-16.95,1.59-33.91,2.38-50.86,1.02.77,2.18,1.3,3.39,1.75,2.82,1.6,5.7,3.1,8.64,4.45.34,5.42.91,21.68.9,34.63,0,6.47.1,18.75.1,25.22,0,3.28.51,15.43,1.57,19.23.71,2.56,7.91,3.24,8.56.19.74-3.53-.68-19.72-.69-26.55.24-13.13.39-26.25.78-39.37.09-2.98-1-6.88,1.7-8.5,5.42,1.54,11,2.5,16.69,2.62-1.89,21.63-9.56,47.03-9.92,68.83-.05,2.92,2.48,4.37,5.21,4.28,5.28-.17,5.58-6.51,7.25-14.88,1.62-8.11,3.22-18.6,4.44-26.75,1.63-10.85,2.82-18.45,5.98-32.41,2.2.05,6.99-.96,9.11-1.49,5.01-1.24,8.46-1.51,13.3-3.38,5.91-2.28,3.56-9.95,2.47-14.51ZM318.05,1090.78c-2.21-22.05-4.19-41.83-6.17-61.62l-.38-18.37c3.53,3.35,6.42,5.43,8.56,7.07,4.07,3.14,9.34,6.94,13.66,9.79l.23,5.02c-5.12,18.7-10.23,37.4-15.9,58.11Z"/>
    <path class="st5" d="M347.29,711.87c-6.85-.13-1.83-86.43-5.83-86.49,4.19.06,8.38.13,12.58.19.83,28.75,1.66,57.49,2.49,86.24-3.07.02-6.14.04-9.23.07Z"/>
    <path class="st5" d="M318.58,802.83c-2.23-14.51-3.97-27.79-17.86-31.25-9.07-2.26-20.89-4.41-30.13-5.58-10.93-1.39-27.3-4.37-13.39-21.21,9.93-12.02,5.92-8.08,18.97-16.74,16.14-10.7,26.63-18.83,44.28-25.25-12.36-23.21-39.68-36.64-64.37-42.12-17.86-3.96-36.48-5.43-54.71-3.61-16.34,1.64-29.68,6.44-43.89,14.34-14.66,8.15-29.88,14.71-44.09,23.78-6.41,4.09-12.62,8.16-10.44,16.61,2.37,9.17,11.85,19.33,17.98,26.28,23.91,27.11,57.54,44.84,93.24,50.02-28.8-4.18-58.9-3.09-87.9-2.71-20.04.26-40.01.64-60.03,1.43-7.86.31-16.96.6-24.3,4.21-32.91,16.19,19.47,66.44,34.75,76.93,22.25,15.27,47.99,24.67,74.8,27.61,28.06,3.08,53.15-3.81,80.64-6.6,14.26-1.45,28.12-2.62,41.3,3.68,2.06.98,4.46,1.82,6.34,3.11,5.49-8.07,17.63-3.35,24.37-10.24,6.35-6.49,7.59-17.08,9.57-25.52,4.06-17.25,7.8-38.1,4.86-57.17Z"/>
    <path class="st5" d="M515.34,675.41c47.04-8.66,91.81-6.21,131.22,25.39,7,5.61,6.93,9.45,1.6,15.84-10.76,12.9-20.28,26.87-33.13,37.95-10.39-8.75-21.54-6.45-34.93-8.68-12.65-.74-29.01,2.03-39.43,4.09-19.76,3.91-29.85,6.07-45.76,20.46-1.5-.71-8.73-3.12-8.93-4.09-4.65-23.15-16.18-48.87-29.51-67.73,6.42-3.62,12.84-7.23,19.26-10.85,13.2-4.13,26.41-8.26,39.61-12.39Z"/>
    <path class="st5" d="M579.1,740.73c14.25-1.26,25.55,5.11,35.94,13.86-2.63,3.25-5.26,6.5-7.9,9.75-28.31,28.03-60.7,50.45-95.53,69.51-7.67,3.58-15.35,7.17-23.02,10.75,3.96-24.44,7.51-48.87.83-73.48-.49-1.8.98-4.12,1.53-6.21,4.46-1.8,9.04-3.33,13.34-5.44,23.61-11.61,48.63-17.45,74.81-18.75Z"/>
    <path class="st5" d="M585.9,983.76c-17.19-19.48-36.91-36.82-58.97-50.6-4.96-3.1-10.12-6.18-15.44-9.11-18.31-10.06-38.54-18.18-59.12-18.31-24.58-.16-41.2,21.52-31.82,44.26,2.14,5.18,2.8,9.59,2.4,13.67-2.5,7.33-7.99,12.84-12.82,18.69-5.87,7.12-9.74,15.41-13.95,23.56-2.35,4.56,4.95,7.75,7.3,3.2,2.23-4.32,4.39-8.69,6.72-12.96,1.95-3.56,4.4-6.74,7-9.84,3.91-4.65,8.05-9.27,10.92-14.63.95-.56,1.96-1.03,3.07-1.3,6.88-1.66,12.79,3.02,18.29,6.36,5.87,3.56,12.06,6.56,18.27,9.47,19.64,9.21,40.66,16.12,62.39,17.75,12.38.93,24.85-.36,37.06-2.45,10.13-1.74,30.84-4.03,18.71-17.78Z"/>
    <path class="st5" d="M580.66,381.32c-16.13,1.7-31.76,6.51-47.29,10.96-70.17,20.09-126.97,71.42-150.2,141.09-9.46,28.37-17.65,57.73-16.04,88.11.48,9.08.82,22.66,2.64,31.11-5.23,20.9-9.22,42.09-11.93,63.47-.86,6.78,9.63,8.47,10.5,1.66,2.43-19.17,5.94-38.17,10.4-56.97,9.19-.46,25.36-6.13,36.93-9.69,16.42-5.05,31.38-13.23,45.49-23.71,44.92-33.38,77.01-76.77,102.92-126.27,16.72-31.95,28.54-66.44,33.21-102.26,2.55-19.58,2.42-19.49-16.63-17.48Z"/>
    <path class="st5" d="M489.63,769.7c-2.44-12.16-6.14-24.07-11.06-35.51-9.59-22.33-15.1-39.17-41.34-42.41-26.29-3.25-51.43,5.69-77.23,8.94-14.07,1.77-28.27.86-42.38,2.15-10.9.99-21.06,3.86-30.81,8.78-14.47,7.31-43.12,22.65-38.34,43.1,4.33,18.52,31.33,16.05,45.44,20.24,11.17,3.32,19.56,12.22,27.73,20.09,9.04,8.7,17.88,17.55,27.9,25.13,18.83,14.25,40.22,25,62.56,32.55,11.25,3.8,22.72,6.32,34.25,9.07,10.49,2.5,22.94,6.47,33.13.83,7.65-4.24,9.47-12.77,10.52-20.77,1.56-11.87,3.09-23.72,3.15-35.72.06-12.26-1.13-24.48-3.54-36.46Z"/>
    <path class="st5" d="M490.95,764.92c-.06-.89-.06-1.77-.02-2.66,15.91-14.39,36.34-17.28,56.1-21.19,10.43-2.06,21.35-6.68,32.08-.34-26.18,1.3-51.2,7.13-74.81,18.75-4.3,2.12-8.89,3.64-13.34,5.44Z"/>
    <path class="st5" d="M277.44,912.56c-6.67-9.45-14.96-15.62-25.68-19.85-2.95-1.17-5.83-2.52-8.84-3.52-1.72-.57-3.47-.94-5.25-1.28-9.24-1.74-18.39-1.98-27.61.06-6.48,1.43-12.78,3.52-19.12,5.46-4.84,1.48-9.77,2.7-14.54,4.42-5.93,2.15-11.57,5.02-17.54,7.07-7.56,2.59-15.11,5.21-22.77,7.47-4.7,1.38-9.33,2.99-13.88,4.81-9.04,3.61-17.72,8.08-25.95,13.27-5.06,3.19-10.12,6.78-14.89,10.53-12.17,9.59-20.88,23.22-26.36,37.59-1.39,3.64-1.32,7.89,1.2,11.03,2.99,3.72,8.12,4.33,12.53,5,2.63.4,5.29.67,7.95.79,4.57.2,9.12-.46,13.69-.4,10.75.14,21.51.42,32.26.04,6.68-.24,13.41-.51,20.01-1.72,6.57-1.2,12.75-3.65,19.02-5.87,8.62-3.06,17.64-4.86,26.2-8.1,4.49-1.7,8.92-3.54,13.29-5.51,4.48-2.02,8.93-4.6,13.56-6.49,21.64-8.86,54.81-18.04,65.01-41.81,2.15-5.01.64-8.82-2.3-12.98Z"/>
    <path class="st5" d="M504.25,944.42h-48.52c18.56-6.77,33.66-6.51,48.52,0Z"/>
    <path class="st5" d="M399.68,1049.11c4.93-3.48,9.19-4.25,16.13-4.44,30.32-.81,58.72,17.87,75.26,42.43,8.58,12.75,6.07,17.8-8.64,20.93-22.61,4.81-53.88-2.19-72.89-15.26-3.47-2.38-6.49-5.3-9.39-8.32-2.28-2.37-7.1-5.88-8.4-8.82-2.83-6.43-3.14-12.76.12-18.34,2.6-4.46,4.65-5.95,7.81-8.18Z"/>
    <path class="st5" d="M461.07,604.36c-4.38-4.54-9.85-7.77-14.54-11.95-5.86-5.22-12.4-9.64-19.23-13.48-20.04-11.26-43.53-14.02-66.03-16.11-5.69-.53-11.36-1.23-17-2.17-2.25-.38-5.22-7.44-6.71-12.65-1.22-4.28-1.98-11.6.42-15.48,1.38-2.23,3.46-4.2,5.75-5.48,3.45-1.93,7.97-1.22,11.71-2.57,4.21-1.52,8.11-3.85,12.46-5.02,7.33-1.97,14.92-2.56,22.45-3.24,8.34-.75,16.67-1.66,24.96-2.86,5.56-.81,10.97-2.39,16.57-2.94,3.71-.36,8.7-.57,10-4.85,1.79-5.9-4.88-10.27-8.65-13.53-6.03-5.21-11.7-10.82-18.24-15.41-8.62-6.04-21.79-7.02-31.86-5.18-24.04,4.39-39.17,23.5-39.86,50.72.01.12-4.04,2.05-4.37,2.23-.51.28-5.63,4.15-5.21,4.23-1.85-.37-2.93-2.15-3.64-4.6q-.42.47,0,0c-1.38-7.41-3.47-14.55-6.14-21.42-.17-4.29-.41-8.63.11-12.87.49-4.02,1.74-7.94,3.64-11.52,9.06,2.38,16.74-2.76,22.96-9.6,8.63-9.49,12.54-21.42,16.55-33.25,5.57-16.46,3.66-18.99-14.12-18.88-20.28.12-37.77,13.38-38.33,34.55-.13,4.95.37,10.13,1.63,14.93.52,1.99,1.23,3.94,2.3,5.71.27.44,4,4.79,4.18,4.44-1.98,3.85-3.4,7.94-3.99,12.27-.11.82-.15,1.66-.21,2.49-3.73-7.37-8.09-14.43-12.99-21.15-3.43-4.71-6.71-9.82-7.85-15.63-1.53-7.8,2.71-15.15,2.83-22.87.13-8.45-3.1-16.51-6.82-23.94-4.96-9.91-8.6-9.87-14.62-.51-3.99,6.22-5.97,13.66-5.12,21.04,1,8.68,6.12,15.99,9.72,23.72,3.49,7.49,11.46,11.27,16.03,17.92,3.18,4.63,7.38,11.44,8.91,16.82-10.72-3.04-22.3-7.23-32.82-10.22.33-.46.63-.97.89-1.55,2.59-5.76,2.05-11.95-.38-17.66-2.21-5.17-4.81-11.08-9.64-14.49-17.79-12.57-44.47-6.77-60.31,6.02-6.75,5.45-12.25,12.47-15.55,20.52-3.55,8.66-3.27,12.94,8.04,12.49,21.37-.85,42.78-.42,64.17-.91,6.06-.14,12.13.55,17.96,2.21,7.71,2.19,12.84,3.57,20.57,6.01,3.53,1.12,10.79,5.3,12.46,8.74,1.67,3.43,3.27,6.89,4.75,10.41,3.23,7.67,4.33,16.01,5.22,24.22.11.98.26,1.96.46,2.93-7.37.19-11.33.04-13.72-1.87-.23-.22.27-3.74.27-4.2,0-1.62-.11-3.24-.31-4.84-.4-3.26-1.21-6.48-2.46-9.53-2.44-5.97-6.59-11.13-11.93-14.76-6.56-4.44-14.42-6.39-22.08-7.99-8.5-1.77-17.29-.99-25.81.17-10.82,1.46-21.44,4.33-31.67,8.1-23.4,8.62-47.6,21.39-61.65,42.93-4.93,7.57-4.42,10.57,5.5,10.77,24.66.5,48.69-4.57,73-7.13,14.01-1.47,27.87-4.08,41.87-5.55,11.4-1.19,23.31-2.16,34.63.17,4.31.88,8.65,1.42,13.04,1.73,2.24.16,4.52.16,6.05,2.09,1.94,2.44,1.94,6.28,2.3,9.1.35,2.78-.52,4.79-3.5,4.85-5.14.1-10.33-.15-15.48-.2-27.64-.23-56.12,5.81-80.57,19.19-7.09,3.88-13.84,8.39-20.13,13.47-10.48,8.46-10.31,14.32.78,21.76,12.86,8.62,30.79,9.3,45.7,10.82,14.86,1.51,29.78,2.29,44.69,3.22,14.55.91,29.07,3.52,43.64,3.77,16.61.29,33.65.62,50.37.18,8.65-.23,17.58,1.16,26.26,1.41,9.24.27,18.79-.02,28.15.08,6.21.07,13.79,1.87,17.56-4.52,4.71-7.98-2.63-18.29-7.99-23.85Z"/>
    <path class="st5" d="M444.33,797.25c-6.75-21.24-19.64-39.69-33.39-56.95-12.74-15.99-21.3-34.56-42.88-36.79-5.12-.53-16.27,4-11.16,3.72,10.55-.58,25.12,7.91,31.99,15.25,6.82,7.28,16.16,18.94,22.32,26.79,12.53,15.94,15.62,21.76,26.23,39.06,4.19,6.83,8.44,13.8,6.89,8.92Z"/>
    <g>
      <path class="st5" d="M524.45,1112.96c10.82-.67,23.51,1.4,23.51,1.4,9.25,4.41,7.21,17.06,7.39,25.77,1.44,70.68-7.22,140.02-26.94,207.88-8.07,27.78-17.4,56.06-34.04,80.03-41.87,60.29-126.18,96.35-195.56,62.29,4.46-3.91,13.51-15.4,17.86-22.32,23.92-38.04,23.96-72.56,26.23-115.51,2.3-43.5,2.17-86.81-4.46-130.02-7.25-47.23-27.38-70.23-74.78-79.24-29.58-5.62-58.61-14.33-88.17-20.09-5.51-1.07-7.73-4.63-7.25-10.19.68-5.05,139.92-.67,156.44-.72,57.75-.16,72.09.42,124.37.42,5.94,0,68.88.7,75.39.29Z"/>
      <path class="st5" d="M168.24,1253.72c-2.97-36.34-4.85-63.99-4.46-100.45.08-8.6-2.96-34.15,4.32-40.32.28,1.95,1.14,3.48,1.81,4.46,1.47,2.14,5.01,3.37,7.39,3.86,8.92,1.84,17.86,3.58,26.77,5.46,17.41,3.67,34.8,7.48,52.25,10.94,22.48,4.46,45.67,9.44,62.16,26.68,16.29,17.03,20.88,40.57,24.06,63.08,5.06,35.81,7.68,72.02,6.61,108.19-.94,32.12-3.07,65.16-12.54,96.04-2.38,7.76-5.25,15.36-8.67,22.72-3.1,6.66-6.31,13.43-10.74,19.33-3.68,4.89-8.4,18.07-16.15,17.49-6.42-.48-13.88-4.36-19.39-7.47-7.04-3.97-13.3-9.12-19.69-14.02-13.11-10.07-23.94-22.08-33.74-35.36-10.01-13.57-17.96-28.36-25.32-43.5-7.34-15.11-13.85-30.64-19.09-46.61-3.13-9.54-5.81-19.22-7.95-29.03-1.05-4.8-5.39-34.16-7.62-61.5Z"/>
    </g>
  </g>
  <g>
    <path class="st5" d="M744.55,1153.01c-13.19-10.45-26.37-20.89-39.56-31.34-14.22.43-28.14,4.38-42.54,3.16-6.23-.52-6.82,2.01-4.03,7.68,3.76,7.62,13.04,11.35,14.17,20.5,23.99,4.06,47.97,4.53,71.96,0Z"/>
    <path class="st5" d="M833.4,1025.51s.03.08.04.12c.33,1.05,10.35-6.8,10.55-7.75.77-3.67.38-11.52.58-17.55.49-15.28,1.63-31.87,1.96-47.15,1.12-53.28,5.99-106.53,15.02-159.06-2.99-.27-6.04-4.15-7.14-1.35-8.29,21.03-16.5,104.38-17.11,116.04-1.56,30.22-3.34,63.75-3.34,94.03,0,10.8,0,16.59-.56,22.67Z"/>
    <path class="st5" d="M845.57,1154.39c0-1.09-.09-2.17-.22-3.25,1.59-1.06,4.42-5.32,5.21-6.28,2-2.42,3.92-4.9,5.79-7.42,4.01-5.43,7.22-11.96,11.62-17.02,4.98-5.72,8.72-12.55,13.67-18.38,5.45-6.41,11.32-12.43,17.05-18.58,3.09-3.31,6.22-6.61,9.53-9.71,3.07-2.88,6.56-4.69,9.81-7.17,15.42-11.78,32.09-21.2,50.61-27.16,29.47-9.48,59.67-10.85,90.23-7.26,4.54,2.36,2.11,4.93.16,7.37-8.8,10.99-18.53,21.22-29.18,30.44-11.63,10.07-23.52,19.86-35.66,29.31-5.71,4.44-11.48,8.81-17.3,13.1-10.15,7.47-20.48,14.7-30.99,21.65-5.26,3.49-10.57,6.9-15.92,10.25-2.74,1.72-5.5,3.41-8.26,5.09-1.77,1.07-5.95,4.75-7.96,4.76-22.73.11-45.46.26-68.19.26Z"/>
    <path class="st5" d="M823.83,607.17c1.03-25.78,4.28-51.49,9.75-76.71,3.17-14.6,7.09-29.11,12.51-43.05,6.01-15.46,15.8-30.39,24.71-44.34,6.26-9.8,13.12-19.22,20.6-28.13,14.59-17.39,31.52-32.78,50.32-45.51,14.09-9.54,29.82-17.46,45.73-24.03,8.16-3.37,16.43-6.54,24.8-9.35,2.92-.98,13.01-4.74,12.04,1.74-8.67,57.52-34.68,111.97-54.89,166.01-21.51,57.54-38.13,116.72-54.32,175.93-5.98,21.87-12.81,43.5-18.36,65.49-3.29,13.04-4.58,28.04-13.22,38.95-7.02,8.86-22.94,18.2-32.27,7.18-4.91-5.8-6.04-14.17-8-21.25-3.87-14.04-6.03-28.47-8.35-42.83-2.98-18.49-7.29-36.77-9.15-55.43-2.14-21.48-2.76-43.11-1.9-64.68Z"/>
    <path class="st5" d="M806.02,1073.16c3.64-64.45,147.49-134.4,170.26-79.53-15.75,14.11-30.26,29.54-43.9,45.69-13.83,16.37-26.76,33.48-39.28,50.87-12.63,17.55-24.85,35.39-37.15,53.17-1.41,2.04-2.83,4.09-4.25,6.13-.6.87-1.52,2.11-2.61,2.63-3.19,2.62-7.35,3.56-11.4,3.71-3.23.11-6.85.3-10-.74-4.88-.59-9.68-2.09-13.8-4.87-19.52-13.18-10.12-56.44-7.88-77.06Z"/>
    <path class="st5" d="M841.11,1142.01c.29-1.39.59-2.78.88-4.17,1.48-6.94,3.01-13.88,4.4-20.82,4.3-21.49,8.38-43.02,12.72-64.51,8.77-43.43,15.44-87.37,27.39-130.09,1.18-4.22,2.46-8.41,3.76-12.59,1.05,1.34,2.16,2.67,3.43,3.94,1.35,1.35,2.85,2.55,4.43,3.68-3.21,10.52-6.1,21.11-8.61,31.76-12.56,53.34-24.08,108.21-33.2,162.25-1.33,7.91-2.86,15.78-4.15,23.69-.61,3.75-.2,15.49-4.17,17.54-2.09,1.08-4.81.11-6.23-1.62-2.04-2.49-1.24-6.21-.65-9.07Z"/>
    <path class="st5" d="M748.58,1072.19c-.72-1.35-1.44-2.7-2.17-4.04-10.09-18.57-21.67-36.28-31.97-54.73-6.44-11.53-12.55-23.24-18.06-35.24,6.34.45,6.85-4.27,8.1-10.45,3.75-18.62,16.26-22.74,29.66-10.27,7.75,7.21,16.93,5.56,25.75,8.97,6.15,2.38,14.41,5.86,20.42,8.82,1.4,1.47,3.89,4.05,6.06,6.51,6.08,7.22,12.58,16.63,18.23,25.17,11.71,17.93,11.8,40.04,13.89,57.8,3.3,28.04,1.62,56.26-4.7,83.75-.41,1.76-1.18,3.26-2.19,4.5-.56.43-1.16.83-2.04,1.37-2.17,1.33-3.21,1.82-5.28,2.49-.03.01-.06.02-.09.03-1.81.12-3.61-.28-5.17-1.22-1.48-1.99-2.61-1.48-4.25-3.32.13-.38-1.76-3.75-1.74-4.2-.32-1.61-.55-2.44-.87-4.05-.36-.99-1.93-3.79-2.46-4.92-4.33-9.26-7.69-14.41-13.02-23.15-4.34-7.11-7.79-12.94-13.17-19.39-5.57-6.67-10.82-16.78-14.93-24.45Z"/>
    <path class="st5" d="M758.41,1154.33c8.49-3.07,17.36-1.72,25.9-1.19,11.69.72,11.96-3.98,7.98-12.5-4.4-9.42-9.02-18.75-14.46-27.62-5.08-8.27-11.09-15.81-17.12-23.4-5.45-6.85-10.56-14.19-17.03-20.14-4.67-4.29-9.79-8.06-15.05-11.6-8.54-5.75-17.72-10.55-27.33-14.24-.48-.18-.96-.37-1.44-.55-20.82-7.73-43.37-10.72-65.51-9.62-2.09.1-4.24-.07-6.29.46-3.32.87-2.97,2.82-1.56,5.49.43.81.87,1.61,1.33,2.41,6.91,12.06,16.5,22.33,26.17,32.2,16.04,16.37,32.72,32.11,49.13,48.12.06.06.12.11.19.17,12.52,10.13,25.04,20.25,37.56,30.38.29.24.63.42.99.52,5.43,1.62,10.94,2.07,16.56,1.1Z"/>
    <g>
      <path class="st5" d="M519.52,267.52c2.21-12.3,12.38-17.45,23.54-20.47,3.08-.83,6.25-1.33,9.36-2.08,19.75-4.75,39.48-2.65,59.22-.83.86-.13,1.77-.19,2.77-.07,2.09.25,4.17.56,6.25.86.55.04,1.09.09,1.64.13.02.03.04.07.06.1,21.72,3.29,42.93,9.49,62.72,19.14,13.81,6.74,42.6,18.74,34.96,38.99-6.87,18.22-40.28,19.39-56.05,20.63-7.46.59-18.91,2.71-26.96.32-19.59,1.23-38.99-1.96-58.33-6.24-15.85-3.5-31.02-8.78-44.2-18.45-10.65-7.82-17.42-18.49-14.99-32.03Z"/>
      <path class="st5" d="M833.85,318.19c16.94-7.88,35.71-12.81,44.39-14.26,19.23-3.22,55.72-11.02,64.26,14.13,2.1,6.18,2.49,13.8-.13,19.86-1.89,4.38-4.83,8.55-7.8,12.27-7.15,8.98-16.6,15.83-27,20.58-21.72,9.92-45.66,10.08-68.76,5.82-9.14-1.69-27.44-1.69-33.88-11.11-14.83-21.68,11.75-39.31,28.93-47.3Z"/>
      <path class="st5" d="M584.83,168.24c1.78-6.28,19.51-28.31,43.58-28.83,23.03-.5,42.49,9.76,62.05,19.87,12.63,6.53,22.41,16.54,27.47,21.98,5.05,5.44,12.04,13.19,11.95,20.46,0,.61-.08,1.18-.19,1.72,6.09,2.47,12.31,4.65,18.26,7.46,4.39,2.08,8.61,4.52,12.39,7.59.65.53,1.27,1.09,1.9,1.64-1.07-4.07-2.12-8.02-2.94-11.1-1.56-5.9-4.63-21.99-12.72-30.58-8.09-8.59-21.01-17.13-26.92-26.13-14.98-22.81-18.43-37.79-23.73-64.24-2.02-10.1-3.67-34.67,5.79-39.64,9.86-5.19,24.29,4.13,32.7,11.57,19.4,17.19,24.44,43.67,29.06,68.08,2.63,13.9,7.19,28.62-1.42,41.74-5.11,7.78-3.35,13.53-.82,21.41,2.96,9.21,6.98,24.4,9.5,35.08,1.08-2.03,2.79-3.71,4.88-4.66-2.75-12.79,10.59-26.8,18.08-35.53,11.46-13.38,24.33-25.64,38.2-36.53,26.43-20.76,63.54-5.81,85.04,13.61,6.83,6.17,13.96,12.34,18.93,20.16,9.1,14.32-11.53,25.41-21.84,30.44-24.91,12.15-51.6,21.32-78.84,26.67-.32.06-.65.13-.98.19-19.39,3.71-44.25,5.31-56.32-13.54-.59-.93-1.06-1.87-1.45-2.82-1.1.56-2.06,1.38-2.79,2.43-.16.23-.31.47-.45.71-.03.05-.04.07-.05.08,0,.01-.01.03-.04.09-.06.13-.12.25-.18.38-.11.26-.22.52-.31.78-.04.13-.09.27-.13.4,0,.03-.04.16-.06.22-.26,1.15-.25,1.96,0,3.08.06.27-.01.54-.13.78.27,1.28.48,2.39.61,3.24.92,5.74,3.38,23.68,2.92,29.86-2.6-.87-4.05-1.16-6.4-2.37l.21.05c-.93-10.72-2.52-25.23-4.55-33.04-.49-1.87-1.01-3.89-1.55-5.95-1.62-1.59-3.29-3.13-5.06-4.55-3.83-3.07-8.1-5.49-12.56-7.54-5.64-2.59-11.49-4.67-17.24-7.01-.89,1.36-2.33,2.54-4.53,3.61-4.2,2.04-17.46,3.72-27.18,4.91-9.72,1.19-29.79-1.16-45.07-4.76-15.28-3.6-39.84-12.94-58.3-23.32-5.79-3.26-10.56-11.91-8.78-18.19Z"/>
    </g>
    <path class="st5" d="M665.52,892.17c4.25-13.85,17.94-22.36,33.42-14.45,18.23,9.32,32.83,24.48,45.53,40.28,12.97,16.14,20.7,28.58,30.17,46.98.85,1.65,4.84,8.61,5.66,10.27-6.01-2.97-12.52-4.72-18.67-7.1-8.83-3.41-19.1-1.78-26.85-8.99-13.4-12.47-25.41-8.37-29.16,10.24-1.24,6.17-2.91,9.23-9.24,8.77,0,0-2.18-3.22-3.62-5.96-1.75-3.32-4.07-7.33-5.72-10.7-2.43-4.98-4.94-9.93-7.33-14.93-4.27-8.91-7.69-18.18-10.81-27.55-2.92-8.77-6.2-17.62-3.36-26.87Z"/>
    <path class="st5" d="M794.18,1064.06c-.45-.42-.89-.84-1.34-1.25.4.46.8.93,1.19,1.39,0,0,.14-.14.14-.14Z"/>
    <path class="st5" d="M656.87,190.52c.46-2.37,48.16,15.94,52.93,18.54,43.44,23.72,74.08,57.74,96.37,101.56,15.98,31.42,27.4,68.16,33.14,102.88,3.6,21.79,6.29,43.71,8.25,65.7,3.69,41.24,4.85,82.74,4.85,124.11-.01,49.04-4.15,97.25-14.2,145.31-2.53,12.1-7.22,23.47-16.17,32.22-8.03,7.84-24.25,12.16-24.25,12.98,0,8.1,1.48,48.09,3.08,80.29,1.41,29.19,3.56,58.39,4.62,87.59,1.29,23.97,1.72,40.21,3.01,64.18.39,7.23,2.19,30.97,2.6,38.19.91,15.92,2.64,25.79,4.05,41.67.38,4.25,5.17,51.8,4.05,52.08-13.83,3.49-15.96-10.68-16.2-25.17-.29-17.36-1.38-52.69-3.18-75.23-1.74-21.7-2.31-68.4-3.11-83.16-1.66-30.75-2.63-56.53-4.7-87.27-1.74-25.75-2.65-44.66-3.76-67.42-.58-11.86-2.03-23.15-2.89-28.65,2.8-34.24-6.54-62.98-8.68-96.93-1.99-31.63-10.04-63.88-12.73-95.49-4.09-48.15-8.88-94.57-15.62-142.36-6.81-48.24-14.02-95.87-29.51-142.36-8.73-26.2-19.65-51.72-34.14-75.23-4.75-7.71-29.75-37.92-27.78-48.03Z"/>
    <path class="st5" d="M785.14,792.24c7.15-1.21-1.34-58.31-7.44-122.27-5.84-61.24-12.88-122.37-21.05-183.34-7.98-59.58-15.24-120.16-34.32-177.42-8.47-25.42-19.88-49.88-33.75-72.8-4.83-7.98-9.55-16.1-15.42-23.38-3.34-4.14-13.38-22.33-12.12-21.86-22.18-8.43-45.87-8.03-68.84-11.86-3.37.92-8.2-2.13-10.03,1.7-1.81,3.8,12.26,19.45,14.56,22.93,25.94,39.34,45.4,80.19,62.2,124.54,42.44,112.09,52.9,234.97,77.54,351.67,4.71,22.33,8.72,44.9,15.76,66.66,4.11,12.7,13.87,48.65,32.93,45.44Z"/>
    <path class="st5" d="M889.49,896.05c4.74-30.88,21.71-58.08,33.46-86.95,7.73-18.99,14.72-37.81,24.84-55.73,9.54-16.9,20.13-33.38,30.98-49.47,21.42-31.75,49.1-58.62,77.88-83.69,24.68-21.5,52.93-31.98,83.5-39.51.59-.23,1.18-.48,1.78-.71.79-1.05,1.5-2.13,2.09-3.27.47-7.43-.23-15.03,1.67-22.25.4-1.51,1.67-2.63,3.23-2.73,37.81-2.54,75.62-4.56,114.3,7.21,2.86.87,3.43,4.69.95,6.36-5.42,3.66-9.93,6.69-14.41,9.76-42.48,29.13-84.75,57.63-124.02,91.08-27.61,23.52-51.21,51.14-73.97,79.25-18.22,22.5-34.72,46.39-50.01,70.96-.05.07-.1.15-.15.22-20,26.15-34.8,56.15-57.53,80.21-8.92,9.44-44.64,47.3-54.76,20.69-2.82-7.42-2.78-14.56.18-21.44Z"/>
    <path class="st5" d="M1142.41,594.46c43.4-20.25,55.17-40.9,54.98-44.56-39.93-2.31-101.13,6.19-124.35,12.73-68.26,19.22-111.39,58.69-144.17,120.95-15.69,29.79-30.88,73.02-37.04,105.9-6.13,32.74-12.15,57.87-14.52,97.66-.46,7.66-.14,27.34,9.32,31.97,4.38-.49,4.4-7.48,7.14-14.66,13.31-34.92,31.8-74.54,50.93-109.38,25.38-46.21,55.64-89.33,89.7-129.44,29.55-34.79,65.58-54.93,108.03-71.18Z"/>
    <g>
      <path class="st5" d="M644.28,1174.58c.51-24.92.07-24.92,25.56-25.11,70.14-.54,140.28-.26,210.42-.21,40.47.02,81.05-.74,121.52.24.44,5.13-1.61,8.41-6.7,9.4-27.29,5.32-54.11,13.36-81.42,18.55-43.77,8.32-62.36,29.56-69.05,73.18-6.12,39.9-6.24,79.9-4.12,120.07,2.09,39.66,2.13,71.55,24.22,106.67,4.02,6.39,12.37,17.01,16.49,20.61-39.67,19.47-92.02,13.07-129.84-7.89-45.76-25.37-68.22-75.47-82.19-123.53-18.21-62.67-26.21-126.71-24.88-191.98Z"/>
      <path class="st5" d="M1001.78,1279.48c2.74-33.56,4.48-59.09,4.12-92.76-.07-7.94,2.73-31.53-3.99-37.23-.26,1.8-1.05,3.22-1.67,4.12-1.36,1.98-4.63,3.11-6.82,3.56-8.24,1.7-16.49,3.31-24.72,5.04-16.08,3.39-32.13,6.91-48.25,10.1-20.76,4.12-42.18,8.72-57.4,24.64-15.05,15.72-19.28,37.47-22.22,58.25-4.67,33.07-7.09,66.51-6.11,99.91.87,29.66,2.84,60.17,11.58,88.69,2.2,7.16,4.84,14.19,8,20.98,2.86,6.15,5.83,12.4,9.92,17.85,3.4,4.51,7.76,16.69,14.92,16.15,5.93-.45,12.82-4.02,17.91-6.9,6.5-3.67,12.28-8.42,18.18-12.95,12.11-9.3,22.11-20.39,31.16-32.65,9.24-12.53,16.59-26.19,23.38-40.17,6.78-13.95,12.79-28.3,17.63-43.04,2.89-8.81,5.36-17.75,7.34-26.81.97-4.44,4.98-31.55,7.04-56.8Z"/>
    </g>
  </g>
  <g>
    <path class="st21" d="M96.29,890.74c8.8-.03-.03-18.07,2.34-22.74,1.32-2.6,3.96-3.13,7.5-3.75,19.53-3.45,37.12-2.68,56.73-.72,7.51.75,11.35,2.32,9.96,9.26-1.21,6.04-1.48,11.6-2.33,17.7-.32,2.25-5.36,48.58-3.48,48.67-20.25-1.03-40.56.47-60.81-.54-2.05-5.02-7.3-6.37-11.01-9.48-7.86-6.58-15.79-15.06-15.44-26.07.29-9.24,8.14-12.31,16.56-12.33ZM89.6,914.12c4.45,6.11,8.98,9.89,16.67,13.72-.56-7.54-1.22-13.13-2.02-19.42-.44-3.45-.69-10.36-5.21-11.25-7.62-1.5-14.57-.2-12.5,8.89.12.55.64,4.74,3.06,8.06Z"/>
    <path class="st3" d="M74.68,944.18c39.24-.04,81.82.55,121.06.51,0-4.72-1.11-6.39-6.39-6.39-26.12,0-50.57-.28-66.68-.28s-28.9-.28-36.68-.28c-6.95.28-13.28-.77-11.31,6.44Z"/>
  </g>
  <g>
    <path class="st10" d="M846.31,1447.1c-1.28-3.71-4.54-12.65-5.88-16.34-2.77-7.6-5.53-15.19-8.3-22.79-7.79-21.37-15.78-42.66-23.82-63.93-4.08-10.79-8.37-21.49-12.55-32.24-13.79-35.5-26.86-71.42-40.08-107.13-2.85-7.7-6.18-15.75-6.18-15.75-5.28,1.39-13.89,3.89-18.27,5.6,1.28,3.42,2.57,6.82,3.84,10.25,16.69,42.77,31.8,86.23,47.69,129.3,14.5,39.3,29.92,80.27,44.61,119.5,2.76,6.13,6.67,11.46,14.8,8.13,6.91-2.84,6.25-8.54,4.17-14.59Z"/>
    <path class="st10" d="M446.36,1453.7c10.19-29.2,24.17-66.68,30.84-84.74,6.67-18.06,42.15-115.89,61.13-167.96-7.19-1.04-13.71-1.74-20.94-2.4-.42,1.56-.83,2.81-1.74,5.58-20.35,55.4-40.74,110.79-61.13,166.18-9.61,27.27-17.16,48.29-26.77,75.56-1.67,6.67-2.5,12.78,4.17,15.28,6.67,2.5,11.91-1.28,14.45-7.5Z"/>
    <path class="st10" d="M605.83,1452.11c.08-8.69.16-17.37.24-26.06-.16-47.77-.38-95.54-.44-143.31-.02-17.34.09-34.69.21-52.03.03-4.25.06-8.5.08-12.75,0-1.17.32-15.41.02-15.41-6.17.1-12.79.11-18.96.21-.12,82.56-.11,166.81-.23,249.38,2.14,11.28,17.42,9.89,19.08-.03Z"/>
    <path class="st24" d="M494.87,1162.91c10.14-6.23,21.4-10.25,33.09-12.81,9.47-1.06,18.3-7,28.34-3.76,1.71,2.14,4.15,1.7,6.42,1.77,24.47.71,49.08.72,73.55,1.43,3.68.04,4.79.21,10.21,0,14.27-.73,28.99-2.27,43.61-3.36,3-.22,9.73-2.06,13.15-4.2-.07-.05-.05-.14.12-.29,16.31-13.82,61.14-69.41,56.12-89.47-6.71-26.84-8.34-30.84-18.89-53.9-3.61-7.22-7.78-13.89-11.11-20.84,12.52-.68,23.31-.71,35.84-1.39,4.59-.74,9.65-.63,14.17-1.67,29.84-6.81,44.02-26.87,45.01-57.51.68-21.08-2.34-40.94-5.56-61.68-4.85-31.24-13.64-61.19-21.67-91.69,6.66-10.45,15-21.15,19.83-32.58,23.39,2.82,46.63,6.48,69.21,13.4,28.89,8.86,54.22,22.13,63.99,53.81,9.96,32.31,10.67,70.14,10.45,103.67-.23,36.4-2.07,73.16-10.33,108.72-15.62,67.26-63.15,126.98-125.47,156.84-76.58,36.69-165.89,38.13-249.11,37.36-7.72-.07-36.7-1.43-52.51-3.33-9.85-1.18-39.59-4.38-57.46-10.12,5.45-13.75,17.3-21.19,29.01-28.38Z"/>
    <path class="st22" d="M368.39,1168.18c26.88,4.79,65.38,13.55,80.3,18.59,5.6,1.89,11.44,3.04,17.18,4.53,5.45-13.75,17.3-21.19,29.01-28.38,10.14-6.23,21.21-9.77,32.9-12.34-3.32-3.41-7.47-2.69-11.16-2.28-37.12,4.12-80.77,12.7-110.26,14.78-12.19.94-31.95,2.5-37.96,5.11Z"/>
    <path class="st19" d="M741.82,1129.93c-11.78,3-22.82,9.03-35.41,8.73-.06,1.12-.13,2.25-.2,3.37,33.58-1.86,64.34-13.18,92.76-30.17,55.74-33.33,84.48-85.16,99.06-146.84,10.38-43.91,9.52-87.26-.97-130.84-2.39-9.94-4.02-20.16-4.86-30.35-1.09-13.35,5.04-24.39,13.37-34.36,2.03-2.44,5.5-3.9,5.61-7.81-11.61,3.49-22.5,20.65-23.3,35.74-.95,17.83,3.26,35.06,7.14,52.03,11.55,50.58,3.87,99.09-12.06,147.32-9.97,30.2-24.82,57.54-47.11,79.96-26.16,26.32-57.28,45.03-94.04,53.21Z"/>
  </g>
  <g>
    <g>
      <g>
        <path class="st10" d="M196.61,1451.87c1.14-4.71,1.98-7.62,2.25-7.73,18.14-6.99,35.96-5.25,54.3-6-1.08,7.09-2.49,14.74-3.56,21.83-.93,5.36-1.29,8.38-2.2,12.38-1.08,4.77-6.3,4.72-11.79,3.11-9.4-2.75-12.81-3.49-20.16-5.95-4.67-1.56-18.24-5.57-20.29-8.15-1.06-1.33.12-4.01,1.45-9.5Z"/>
        <path class="st14" d="M95.44,1420.64c5.38-4.21,14.19-6.42,19.5-8.17,5.29-1.74,14.51-4.16,21.1-5.87,7.08-1.84,20.14-8.15,29.14-12.58,13.27-6.53,17.88-9.1,33.71-15.95,4.58,7.5,16.95,12.99,31.22,15.32,4.74.61,9.45-.56,11.95.27,4.4,1.47,8.55,4.35,11.08,8.18,3.18,4.82,4.22,8.24,4.49,13.46.15,2.81-.27,8.52-1.16,13.12-.93,4.8-1.74,10.38-3.75,10.37-18.4-.07-37.06-.62-54.3,6-2.74.02-6.43,1-9.03,1.68-9.24,2.43-18.57,6.38-28.62,4.7-13.01-2.16-15.73-4.24-28.3-8.18-9.73-3.05-16.19-5.82-21.61-7.41-3.45-1.01-11.38-3.64-14.68-5.12-4.32-1.93-3.94-7.34-.76-9.83Z"/>
      </g>
      <path class="st25" d="M212.87,1366.5c-2.58,4.73-8.48,13.97-15.3,18.11,4.61,10.56,39.29,25.95,50.17,24.06,1.36-3.93,2.56-13.47,6.46-18.77-11.88-6.57-29.72-16.51-41.33-23.4Z"/>
      <g>
        <path class="st10" d="M191.64,1466.83c-.42-5.42-.55-8.82-.32-9.03,15.32-13.89,33.15-18.38,50.68-25.69,1.25,7.93,2.36,16.58,3.61,24.51.83,6.04,1.46,9.38,1.88,13.96.5,5.47-4.57,7.26-10.42,7.5-10,.42-13.54.83-21.46.83-5.03,0-19.47.56-22.3-1.46-1.46-1.04-1.18-4.31-1.67-10.63Z"/>
        <path class="st19" d="M83.49,1469.54c3.85-6.39,11.67-11.88,16.25-15.63,4.57-3.74,12.71-9.59,18.55-13.75,6.26-4.48,16.88-15.84,24.17-23.76,10.75-11.67,14.38-16.05,27.51-28.97,6.86,6.36,20.63,7.8,35.22,5.21,4.79-1.04,8.98-3.96,11.67-3.96,4.74,0,9.69,1.59,13.38,4.77,4.64,4,6.75,7.28,8.71,12.74,1.05,2.94,2.5,9.17,3.13,14.38.65,5.44,1.67,11.67-.28,12.37-17.85,6.47-36.12,12.52-50.68,25.69-2.65.99-5.91,3.35-8.2,5-8.16,5.87-15.93,13.39-26.21,15.18-13.3,2.32-16.62,1.08-30.07,1.35-10.42.21-17.57-.44-23.34-.21-3.67.15-12.2.17-15.88-.23-4.81-.52-6.19-6.41-3.92-10.19Z"/>
      </g>
      <path class="st26" d="M185.95,1295.98c-1.88,12.41-10.4,51.4-13.76,69.44,3.54,1.04,8.34,2.08,13.75,2.92,15.63,1.46,16.67,2.08,31.47,3.96.14-2.32-.21-9.17,1.11-17.5,21.44-71.31,41.37-141.81,62.77-213.13,5.99-19.97,13.47-39.69,10.72-61.14-1.64-12.78-4.14-24.96-11.94-36.21-4.76-6.87-14.25-9.1-16.03-18.15-6.63,6.33-13.02,16.05-16.25,23.5-8.88,18.87-19.11,54.47-23.44,71.46-15.67,58.04-27.9,115.68-38.41,174.86Z"/>
      <path class="st22" d="M264.05,1026.16c1.77,9.04,11.26,11.28,16.03,18.15,7.8,11.25,10.3,23.43,11.94,36.21,2.74,21.45-4.73,41.16-10.72,61.14-21.39,71.32-42.67,142.68-64.11,213.99-1.53,5.07-1.65,10.19-3.52,15.36.62,3.38,1.64,4.58,2.5,8.17,4.98.13,4.88-1.75,5.16-4.4.72-6.66,3.41-13.28,3.86-19.28,1.44-19.18,10.42-35.63,16.01-53.23,14.55-45.83,28.02-91.96,41.07-138.23,6.47-22.95,14.22-45.56,23.55-67.63,15.27-36.13,43.24-55.81,80.37-64.22,29.05-6.58,58.7-9.47,88.07-14.08,39.18-6.15,83.72-8.97,122.69-16.45,12.73-2.44,27.34-15.12,37.51-23.06-3.95-.23-8.34-1.39-14.73-1.39-11.57,0-23.89,0-35.56-.28-7.47-.12-21.67.28-29.45,0-12.7.82-17.23.28-27.23.28-3.17-.67-12.91-.01-15.57,3.04-5.41,3.25-25.55,5.02-36.39,6.41-57,7.73-110.89,14.39-167.9,22.1-15.89,2.15-31.47,5.58-43.58,17.41Z"/>
      <path class="st9" d="M220.54,1371.87c.83-6.65,4.2-10.39,4.65-16.39,1.44-19.18,10.42-35.63,16.01-53.23,14.55-45.83,28.02-91.96,41.07-138.23,6.47-22.95,14.22-45.56,23.55-67.63,15.27-36.13,43.24-55.81,80.37-64.22,29.05-6.58,58.7-9.47,88.07-14.08,39.18-6.15,78.86-8.55,117.83-16.03,14.02-2.69,25.88-10.7,36.91-19.65.29-.23,7.02-5.86,12.89-5.63,5.42.21,8.13,1.04,18.75.83,9.29-.18,20.51-.5,29.8,0,7.71.42,16.45-.16,24.59-.63,7.29-.42,21.68-1.9,22.5-.07,5,11.11,9.17,20.28,17.51,39.45,13.67,31.43,18.25,70.75-6.67,99.75-25.12,29.24-67.23,34.45-103.42,35.65-46.79,1.56-95.04-.77-142.27,2.97-45.86,3.63-91.18,13.33-137.32,13.33-3.22,0-4.37,7.82-4.99,9.89-18.5,62.26-52.71,120.26-83.78,176.86-1.65,3.01-3.13,6.25-5,9.13-6.74,10.41-13.48,20.82-20.22,31.23-5.86-.75-11.58-2.11-16.76-4.91-4.76-2.57-8.97-5.8-13.38-8.64-1.13-1.54-1.34-2.27-1.76-3.31-.74-1.94.73-3.96,1.04-6.46Z"/>
      <path class="st25" d="M175.73,1366.04c-.3,5.38-3.75,16.88-8.13,23.55,8.7,7.56,46.62,6.57,55.64.21-.46-4.14-3.86-11.36-2.6-17.82-13.55-.83-31.47-4.69-44.91-5.94Z"/>
    </g>
    <g>
      <path class="st22" d="M572.29,652.74c11.46.68,14.26-9.85,13.41-21.05-.43-5.65-4.86-9.59-14.17-7.36.91,5.13,3.85,8.96,5,14.03,1.19,5.25.79,12.31-4.24,14.38Z"/>
      <g>
        <path class="st25" d="M553.95,899.88c8.66-7.52,19.14-5.52,29.59-2.92,16.26,4.04,30.65,14.11,48.14,13.55,5.43,7.32,6.19,17.29,6.46,26.05-34.36-1.66-70.04-3.55-104.4-5.21-.91-2.23-1.04-6.04,1.67-10.21,5.91-6.73,12.64-14.53,18.55-21.26Z"/>
        <path class="st25" d="M518.26,525.84c-.04-.42-.09-.84-.15-1.26,11.17-5.23,14.78-18.97,23.55-27.09,10.83,19.65,26.55,27.13,47.3,25.63,3.63-.26,8.69-1.08,12.29-1.67,4.99-.82,10.52.66,11.25,5.42.42,2.71-.13,4.64-.9,5.42.73.68.36,1.12.9,1.95,3.86-2.23,6.96-6,10.63-8.61,6.86-4.88,17.15-1.04,20.84,6.67,4.38,9.17,1.3,23.87-8.34,27.09-4.92,1.64-6.75.51-6.25,4.38-.63,10.63,2.71,22.09,4.17,28.97,1.17,3.78,3.45,11.08,4.79,14.8,6.04,16.73,11.1,28.48,29.17,35.84-1.67,23.76-35.07,53.52-68.14,46.47-17.45-3.72-29.8-18.55-28.94-37.33,1.26-.42,1.68-.59,3.62-1.43,3.47-1.35,10.82-7.21,9.97-18.41-.19-2.53-.13-5.58-2.43-7.15-2.08-1.42-5.35-.77-7.64-.63-4.51.28-8.27.56-12.44-1.39-8.63-4.03-14.44-12.16-19.94-19.6-5.65-7.63-11.18-15.54-13.02-25.05-1.74-8.99.3-18.04-3.5-26.66-3.51-7.96-7.77-15.61-7.48-24.58.02-.76.29-1.34.68-1.77Z"/>
      </g>
      <path class="st10" d="M529.71,543.62c-1.51-3.8-3.98-8.09-8.47-7.36-4.31.69-.47,7.26.42,8.4,2.19-1.3,4.84-3.35,8.06-1.04Z"/>
      <path class="st10" d="M547.5,539.57c11.44-6.5,23.29-.16,34.15-5.91-15.23-8.96-28.06-7.32-34.15,5.91Z"/>
      <path class="st10" d="M607.55,523.76c-2.94-1.44-6.11-.71-9.18-.2-3.85.63-7.7,1.1-11.61,1.22-6.03.18-12.13-.29-17.97-1.87-5.54-1.5-10.78-4.02-15.29-7.59-2.37-1.87-4.53-4.01-6.45-6.33-1.11-1.34-2.15-2.74-3.11-4.19-.76-1.14-1.41-3.01-2.47-3.86-.98.29-1.83,1.66-2.51,2.42-.8.9-1.55,1.84-2.28,2.8-1.45,1.91-2.78,3.91-4.13,5.89-2.63,3.89-5.33,7.83-8.92,10.9-1.09.93-2.25,1.75-3.48,2.5-1.3.78-1.99,1.06-3.53.64-2.27-.63-4.46-1.77-6.38-3.12-4.13-2.9-7.14-7.05-9.79-11.27-2.61-4.16-4.87-8.52-6.44-13.18-5.46-16.26-1.78-34.53,11.65-45.78,6.89-5.76,15.49-9.1,24.33-10.34,13.14-1.83,26.4.53,39.59-.33,13.29-.86,26.01-5.09,39.3-5.96,6.62-.43,13.14-.18,19.61,1.38,11.97,2.88,22.86,7.52,31.15,16.48,3.51,3.79,6.79,8.26,9.34,12.48,5.52,9.13,9.27,19.21,12.22,29.43,2.95,10.21,4.81,20.53,10.96,29.46,3.05,4.43,6.89,8.3,11.38,11.28,4.04,2.68,8.52,4.56,12.93,6.52,8.48,3.76,18.36,8.78,20.81,18.61,1.43,5.75,0,11.8-1.41,17.4-.98,3.87-2.51,8.65,2.08,10.69,4.85,2.16,10.89,2.07,16.08,2.3,6.25.27,12.38.71,18.33,2.76,7.43,2.56,13.57,7.43,13.45,15.88-.07,4.79-1.96,9.2-2.97,13.81-1.01,4.61-1.46,9.38-.94,14.09,1.05,9.51,6.32,17.53,13.6,23.52,4.25,3.5,8.88,6.38,12.81,10.29,3.47,3.46,6.49,7.36,8.79,11.69,9.19,17.32,4.56,37.82-3.53,54.58-2.07,4.28-4.3,8.48-6.66,12.61-1.1,1.93-2.23,3.84-3.38,5.74-.66,1.09-1.32,2.17-1.99,3.25-.58.93-1.09,2.34-2.01,2.96-1.73,1.16-4.87-7.49-5.18-8.32-.78-2.07-1.55-4.14-2.35-6.2-11.55-29.83-22.67-60.89-47.79-82.24-16.53-14.05-35.24-16.21-56.12-17.23-3.01-.15-9.12-1-11.95-1.95-3.96-1.33-9.07-2.17-12.81-4.02-3.06-1.51-5.94-3.37-8.56-5.57-10.31-8.64-15.73-21.64-20.03-34.05-.76-2.19-1.8-6.03-3.05-11.24-2.7-11.27-3.96-19.86-3.96-28.13,0-3.33,1.66-5.33,4.02-6.31,2.84-1.18,5.3-2.26,7.42-4.59,3.93-4.3,5.49-10.61,4.41-16.29-1.14-6.02-5.73-12.35-12.41-12.27-3.68.04-6.42,2.11-9.33,4.09-2.88,1.96-6.05,4.39-9.25,5.57l-1.26-2.73c.27-.42.45-.92.48-1.52.13-2.67-1.92-5.44-4.24-6.58Z"/>
      <path class="st27" d="M630.14,556.23c-8.82.04-16.73,29.06.83,28.65,16.86-.39,7.56-28.69-.83-28.65Z"/>
      <path class="st10" d="M508.35,556.12c1.64-4.26,6.13-6.68,11.76-6.59,2.59.04,5.15.32,7.67.94,3.58.87,7.18,2.48,10.94,2.25,5.29-.34,9.42-3.68,13.74-6.3,1.38-.84,2.85-1.54,4.39-2.06,3.33-1.12,7.11-1.29,10.37.14,4.13,1.82,7.21,2.11,11.74.3,12.61-5.03,21.05-8.54,34.65-14.19,0,0,1.89,2.45,1.89,2.45-1.32,1.04-4.05,1.98-5.08,2.44-3.67,1.67-8.19,4.3-11.87,5.96-6.35,2.87-10.77,4.76-17.09,7.71-3.13,1.46-5.23,3.86-4.79,6.88.94,6.51,1.46,14.14-3.29,19.4-7.09,7.85-18.98.89-25.4-6.96-3.75-4.58-4.78-9.88-8.06-9.72-2.92.14-2.36,5.15-2.22,7.78.44,8.82-7,17.09-16.05,13.27-8.11-3.43-17.09-13.87-13.3-23.69ZM549.64,564.6c2.55,4.23,5.9,6.73,9.67,9.12,3.69,2.34,10.1,2.41,12.7-1.62,2.63-4.08,2.67-13.57-1.11-18.62-2.64-3.52-4.2-5.22-9.03-5.28-4.83-.06-12.29,4.1-14.17,7.22-1.88,3.13-.28,5.49,1.94,9.17ZM510.82,562.1c1.11,5.56,3.52,10.08,10,13.96,3.47,2.08,8.11,2.04,10.63,0,2.71-2.19,3.38-7.23,2.92-11.04-.55-4.52-1.77-7.67-5.82-9.87-3.79-2.06-10.82-3.58-14.51-.65-2.43,1.93-3.77,4.82-3.21,7.6Z"/>
    </g>
  </g>
  <g>
    <path class="st15" d="M779.06,975.72c29.84-6.81,45.97-26.81,46.96-57.45.68-21.08-1.81-41.84-5.02-62.59-4.85-31.24-13.46-61.6-21.49-92.1-6.55-16.53-12.66-33.26-19.78-49.54-7.31-16.74-16.67-32.37-30.31-44.92-7.83-7.2-16.22-13.59-27.19-15.29-4.14,2.73-9.1,7.19-11.5,11.76-11.05,21.01-11.02,43.25-12.36,65.99-1.39,23.55.83,49.83,3.61,73.21,3.09,26,7.49,49.21,15.28,74.18,2.71,8.7,1.41,9.81-5.97,12.36-27.14,9.4-55.22,12.66-83.21,17.78,5.56,7.22,7.92,22.22,8.2,30.98,0,9.59,42.09,46.68,142.8,35.61Z"/>
    <path class="st15" d="M527.76,664.9c-10.89,2.21-16.78,12.55-21.36,20.77-11.27,20.22-16.58,42.45-20.57,65.08-4.42,25.07-11,53.98-11.7,79.54,8.16,32.04,17.44,60.21,28.13,91.48,2.2,6.44,8.48,11.42,15.63,10.84,4.94-.4,7.53-.63,12.5-.63,1.38-7.02,8.74-43.27,12.09-58.56.3-11.11-1.08-18.61-10.84-25.98-7.3-5.51-13.34-15.81-17.23-24.45-9.07-20.14-5.81-39.56-.56-60.29,8.24-32.48,16.9-63.63,13.89-97.8Z"/>
    <path class="st27" d="M666.27,644.7c-4.01,22.65-34.37,49.92-67.45,42.86-17.45-3.72-26.67-15.71-28.39-35.06-3.67-.42-7.21-.08-10.5,1.75-2.02,31.35,27.34,53.99,63.83,46.77,28.9-5.72,48.9-26.67,56.69-53.71-4.6-1.57-9.11-3.58-14.18-2.61Z"/>
    <path class="st18" d="M551.83,902.32c8.66-7.52,18.42-7.31,28.88-4.71,16.26,4.04,31.05,13.6,48.53,13.03,27.99-5.12,56.4-8.13,83.54-17.53,7.39-2.56,9.37-4.55,6.66-13.25-7.79-24.98-12.22-50.86-15.31-76.85-2.78-23.38-5.26-46.91-3.87-70.46,1.34-22.74,2.26-45.7,13.31-66.71,2.4-4.57,6.59-7.45,8.67-12.01-13.58-4.37-27.59-6.02-41.78-6.52-10.76,26.91-29.08,46.33-57.98,52.05-36.48,7.23-61.13-12.65-62.54-45.1-11.62,2.94-24.18,3.18-33.87,11.72,3.01,34.17-5.76,68.69-14,101.17-5.26,20.74-8.98,44.96,1.67,62.93,5.52,9.31,12.38,17.62,18.75,24.17,9.25,9.51,10.51,19.78,11.67,27.92.83,5.83,1.78,10.22,2.74,14.07.21.84,3.13,7.65,4.94,6.08Z"/>
  </g>
  <g>
    <path class="st1" d="M224.05,702.18c-16.63-.05-33.27-.2-49.9-.14-15.74.06-19.63,6.29-16.01,21.35,10.93,45.43,19.34,74.6,29.26,116.28,4.82,20.24,11.51,45.7,16.67,65.85,3.96,15.46,6.1,37.65,19.78,38.12,3.31.11,10.67,1.06,13.98,1.06,107.11.05,209.22-1.01,316.33.42,46.89.63,72.52.49,85.23-1.25,1.05-.14,1.88-.89,1.82-1.94-.1-1.71-.23-4.17-.27-5.82,0-.49-.4-.88-.89-.9-34.05-1.65-73-3.29-107.07-4.94-4.97,0-10.56-.38-15.5-.77-8.1-.63-12.18-6.9-14.38-13.34-22.9-67.01-40.11-130.38-61.44-197.89-4.01-12.69-9.08-16.13-21.8-16.14-64.65,0-130.65.11-195.82.07Z"/>
    <path class="st29" d="M315.91,802.12c-4.12-.79-8.29.59-11.63,5.45-6.51,9.47,3.57,27.86,13.05,31.68,9.81,3.95,15.25-6.94,15.55-15.15.32-8.73-8.19-20.29-16.96-21.98Z"/>
  </g>
  <g>
    <rect class="st10" x="14.86" y="944.19" width="749.35" height="35.01" rx="3.36" ry="3.36" transform="translate(779.07 1923.38) rotate(180)"/>
    <path class="st10" d="M641.4,1483.71h0c2.76,0,5-2.24,5-5v-501.23c0-2.76-2.24-5-5-5h0c-2.76,0-5,2.24-5,5v501.23c0,2.76,2.24,5,5,5Z"/>
    <path class="st10" d="M701.97,1483.71h0c2.76,0,5-2.24,5-5v-501.23c0-2.76-2.24-5-5-5h0c-2.76,0-5,2.24-5,5v501.23c0,2.76,2.24,5,5,5Z"/>
    <path class="st10" d="M118.5,1483.71h0c2.76,0,5-2.24,5-5v-501.23c0-2.76-2.24-5-5-5h0c-2.76,0-5,2.24-5,5v501.23c0,2.76,2.24,5,5,5Z"/>
    <path class="st10" d="M179.07,972.47c2.76,0,5,2.24,5,5v328.76c-.31,2.29-8.13,46.68-10,50.28v-379.04c0-2.76,2.24-5,5-5Z"/>
  </g>
  <path class="st7" d="M110.08,1152.29c0,12.58,0,25.15.01,37.73.92,1.28,1.85,2.55,2.77,3.83.23-13.76.46-27.53.69-41.29-1.16-.09-2.32-.18-3.48-.27Z"/>
  <path class="st23" d="M175.71,1065.89c-.41-.06-.81-.12-1.22-.18-.17,12.77-.33,25.55-.5,38.33.61.09,1.21.2,1.82.32-.03-12.82-.06-25.64-.1-38.46Z"/>
  <path class="st8" d="M122.3,1398.06c3.83-11.14.74-22.65,1.81-33.94-.61,0-1.21,0-1.82,0,0,11.31,0,22.62,0,33.93Z"/>
  <g>
    <path class="st4" d="M96.29,890.74c8.8-.03-.03-18.07,2.34-22.74,1.32-2.6,3.96-3.13,7.5-3.75,19.53-3.45,37.12-2.68,56.73-.72,7.51.75,11.35,2.32,9.96,9.26-1.21,6.04-1.48,11.6-2.33,17.7-.32,2.25-5.36,48.58-3.48,48.67-20.25-1.03-40.56.47-60.81-.54-2.05-5.02-7.3-6.37-11.01-9.48-7.86-6.58-15.79-15.06-15.44-26.07.29-9.24,8.14-12.31,16.56-12.33ZM89.6,914.12c4.45,6.11,8.98,9.89,16.67,13.72-.56-7.54-1.22-13.13-2.02-19.42-.44-3.45-.69-10.36-5.21-11.25-7.62-1.5-14.57-.2-12.5,8.89.12.55.64,4.74,3.06,8.06Z"/>
    <path class="st12" d="M74.68,944.18c39.24-.04,81.82.55,121.06.51,0-4.72-1.11-6.39-6.39-6.39-26.12,0-50.57-.28-66.68-.28s-28.9-.28-36.68-.28c-6.95.28-13.28-.77-11.31,6.44Z"/>
  </g>
  <g>
    <path class="st10" d="M846.31,1447.1c-1.28-3.71-4.54-12.65-5.88-16.34-2.77-7.6-5.53-15.19-8.3-22.79-7.79-21.37-15.78-42.66-23.82-63.93-4.08-10.79-8.37-21.49-12.55-32.24-13.79-35.5-26.86-71.42-40.08-107.13-2.85-7.7-6.18-15.75-6.18-15.75-5.28,1.39-13.89,3.89-18.27,5.6,1.28,3.42,2.57,6.82,3.84,10.25,16.69,42.77,31.8,86.23,47.69,129.3,14.5,39.3,29.92,80.27,44.61,119.5,2.76,6.13,6.67,11.46,14.8,8.13,6.91-2.84,6.25-8.54,4.17-14.59Z"/>
    <path class="st10" d="M446.36,1453.7c10.19-29.2,24.17-66.68,30.84-84.74,6.67-18.06,42.15-115.89,61.13-167.96-7.19-1.04-13.71-1.74-20.94-2.4-.42,1.56-.83,2.81-1.74,5.58-20.35,55.4-40.74,110.79-61.13,166.18-9.61,27.27-17.16,48.29-26.77,75.56-1.67,6.67-2.5,12.78,4.17,15.28,6.67,2.5,11.91-1.28,14.45-7.5Z"/>
    <path class="st10" d="M605.83,1452.11c.08-8.69.16-17.37.24-26.06-.16-47.77-.38-95.54-.44-143.31-.02-17.34.09-34.69.21-52.03.03-4.25.06-8.5.08-12.75,0-1.17.32-15.41.02-15.41-6.17.1-12.79.11-18.96.21-.12,82.56-.11,166.81-.23,249.38,2.14,11.28,17.42,9.89,19.08-.03Z"/>
    <path class="st0" d="M494.87,1162.91c10.14-6.23,21.4-10.25,33.09-12.81,9.47-1.06,18.3-7,28.34-3.76,1.71,2.14,4.15,1.7,6.42,1.77,24.47.71,49.08.72,73.55,1.43,3.68.04,4.79.21,10.21,0,14.27-.73,28.99-2.27,43.61-3.36,3-.22,9.73-2.06,13.15-4.2-.07-.05-.05-.14.12-.29,16.31-13.82,61.14-69.41,56.12-89.47-6.71-26.84-8.34-30.84-18.89-53.9-3.61-7.22-7.78-13.89-11.11-20.84,12.52-.68,23.31-.71,35.84-1.39,4.59-.74,9.65-.63,14.17-1.67,29.84-6.81,44.02-26.87,45.01-57.51.68-21.08-2.34-40.94-5.56-61.68-4.85-31.24-13.64-61.19-21.67-91.69,6.66-10.45,15-21.15,19.83-32.58,23.39,2.82,46.63,6.48,69.21,13.4,28.89,8.86,54.22,22.13,63.99,53.81,9.96,32.31,10.67,70.14,10.45,103.67-.23,36.4-2.07,73.16-10.33,108.72-15.62,67.26-63.15,126.98-125.47,156.84-76.58,36.69-165.89,38.13-249.11,37.36-7.72-.07-36.7-1.43-52.51-3.33-9.85-1.18-39.59-4.38-57.46-10.12,5.45-13.75,17.3-21.19,29.01-28.38Z"/>
    <path class="st2" d="M368.39,1168.18c26.88,4.79,65.38,13.55,80.3,18.59,5.6,1.89,11.44,3.04,17.18,4.53,5.45-13.75,17.3-21.19,29.01-28.38,10.14-6.23,21.21-9.77,32.9-12.34-3.32-3.41-7.47-2.69-11.16-2.28-37.12,4.12-80.77,12.7-110.26,14.78-12.19.94-31.95,2.5-37.96,5.11Z"/>
    <path class="st2" d="M741.82,1129.93c-11.78,3-22.82,9.03-35.41,8.73-.06,1.12-.13,2.25-.2,3.37,33.58-1.86,64.34-13.18,92.76-30.17,55.74-33.33,84.48-85.16,99.06-146.84,10.38-43.91,9.52-87.26-.97-130.84-2.39-9.94-4.02-20.16-4.86-30.35-1.09-13.35,5.04-24.39,13.37-34.36,2.03-2.44,5.5-3.9,5.61-7.81-11.61,3.49-22.5,20.65-23.3,35.74-.95,17.83,3.26,35.06,7.14,52.03,11.55,50.58,3.87,99.09-12.06,147.32-9.97,30.2-24.82,57.54-47.11,79.96-26.16,26.32-57.28,45.03-94.04,53.21Z"/>
  </g>
  <g>
    <g>
      <g>
        <path class="st10" d="M196.61,1451.87c1.14-4.71,1.98-7.62,2.25-7.73,18.14-6.99,35.96-5.25,54.3-6-1.08,7.09-2.49,14.74-3.56,21.83-.93,5.36-1.29,8.38-2.2,12.38-1.08,4.77-6.3,4.72-11.79,3.11-9.4-2.75-12.81-3.49-20.16-5.95-4.67-1.56-18.24-5.57-20.29-8.15-1.06-1.33.12-4.01,1.45-9.5Z"/>
        <path class="st13" d="M95.44,1420.64c5.38-4.21,14.19-6.42,19.5-8.17,5.29-1.74,14.51-4.16,21.1-5.87,7.08-1.84,20.14-8.15,29.14-12.58,13.27-6.53,17.88-9.1,33.71-15.95,4.58,7.5,16.95,12.99,31.22,15.32,4.74.61,9.45-.56,11.95.27,4.4,1.47,8.55,4.35,11.08,8.18,3.18,4.82,4.22,8.24,4.49,13.46.15,2.81-.27,8.52-1.16,13.12-.93,4.8-1.74,10.38-3.75,10.37-18.4-.07-37.06-.62-54.3,6-2.74.02-6.43,1-9.03,1.68-9.24,2.43-18.57,6.38-28.62,4.7-13.01-2.16-15.73-4.24-28.3-8.18-9.73-3.05-16.19-5.82-21.61-7.41-3.45-1.01-11.38-3.64-14.68-5.12-4.32-1.93-3.94-7.34-.76-9.83Z"/>
      </g>
      <path class="st25" d="M212.87,1366.5c-2.58,4.73-8.48,13.97-15.3,18.11,4.61,10.56,39.29,25.95,50.17,24.06,1.36-3.93,2.56-13.47,6.46-18.77-11.88-6.57-29.72-16.51-41.33-23.4Z"/>
      <g>
        <path class="st11" d="M191.64,1466.83c-.42-5.42-.55-8.82-.32-9.03,15.32-13.89,33.15-18.38,50.68-25.69,1.25,7.93,2.36,16.58,3.61,24.51.83,6.04,1.46,9.38,1.88,13.96.5,5.47-4.57,7.26-10.42,7.5-10,.42-13.54.83-21.46.83-5.03,0-19.47.56-22.3-1.46-1.46-1.04-1.18-4.31-1.67-10.63Z"/>
        <path class="st16" d="M83.49,1469.54c3.85-6.39,11.67-11.88,16.25-15.63,4.57-3.74,12.71-9.59,18.55-13.75,6.26-4.48,16.88-15.84,24.17-23.76,10.75-11.67,14.38-16.05,27.51-28.97,6.86,6.36,20.63,7.8,35.22,5.21,4.79-1.04,8.98-3.96,11.67-3.96,4.74,0,9.69,1.59,13.38,4.77,4.64,4,6.75,7.28,8.71,12.74,1.05,2.94,2.5,9.17,3.13,14.38.65,5.44,1.67,11.67-.28,12.37-17.85,6.47-36.12,12.52-50.68,25.69-2.65.99-5.91,3.35-8.2,5-8.16,5.87-15.93,13.39-26.21,15.18-13.3,2.32-16.62,1.08-30.07,1.35-10.42.21-17.57-.44-23.34-.21-3.67.15-12.2.17-15.88-.23-4.81-.52-6.19-6.41-3.92-10.19Z"/>
      </g>
      <path class="st17" d="M185.95,1295.98c-1.88,12.41-10.4,51.4-13.76,69.44,3.54,1.04,8.34,2.08,13.75,2.92,15.63,1.46,16.67,2.08,31.47,3.96.14-2.32-.21-9.17,1.11-17.5,21.44-71.31,41.37-141.81,62.77-213.13,5.99-19.97,13.47-39.69,10.72-61.14-1.64-12.78-4.14-24.96-11.94-36.21-4.76-6.87-14.25-9.1-16.03-18.15-6.63,6.33-13.02,16.05-16.25,23.5-8.88,18.87-19.11,54.47-23.44,71.46-15.67,58.04-27.9,115.68-38.41,174.86Z"/>
      <path class="st20" d="M264.05,1026.16c1.77,9.04,11.26,11.28,16.03,18.15,7.8,11.25,10.3,23.43,11.94,36.21,2.74,21.45-4.73,41.16-10.72,61.14-21.39,71.32-42.67,142.68-64.11,213.99-1.53,5.07-1.65,10.19-3.52,15.36.62,3.38,1.64,4.58,2.5,8.17,4.98.13,4.88-1.75,5.16-4.4.72-6.66,3.41-13.28,3.86-19.28,1.44-19.18,10.42-35.63,16.01-53.23,14.55-45.83,28.02-91.96,41.07-138.23,6.47-22.95,14.22-45.56,23.55-67.63,15.27-36.13,43.24-55.81,80.37-64.22,29.05-6.58,58.7-9.47,88.07-14.08,39.18-6.15,83.72-8.97,122.69-16.45,12.73-2.44,27.34-15.12,37.51-23.06-3.95-.23-8.34-1.39-14.73-1.39-11.57,0-23.89,0-35.56-.28-7.47-.12-21.67.28-29.45,0-12.7.82-17.23.28-27.23.28-3.17-.67-12.91-.01-15.57,3.04-5.41,3.25-25.55,5.02-36.39,6.41-57,7.73-110.89,14.39-167.9,22.1-15.89,2.15-31.47,5.58-43.58,17.41Z"/>
      <path class="st17" d="M220.54,1371.87c.83-6.65,4.2-10.39,4.65-16.39,1.44-19.18,10.42-35.63,16.01-53.23,14.55-45.83,28.02-91.96,41.07-138.23,6.47-22.95,14.22-45.56,23.55-67.63,15.27-36.13,43.24-55.81,80.37-64.22,29.05-6.58,58.7-9.47,88.07-14.08,39.18-6.15,78.86-8.55,117.83-16.03,14.02-2.69,25.88-10.7,36.91-19.65.29-.23,7.02-5.86,12.89-5.63,5.42.21,8.13,1.04,18.75.83,9.29-.18,20.51-.5,29.8,0,7.71.42,16.45-.16,24.59-.63,7.29-.42,21.68-1.9,22.5-.07,5,11.11,9.17,20.28,17.51,39.45,13.67,31.43,18.25,70.75-6.67,99.75-25.12,29.24-67.23,34.45-103.42,35.65-46.79,1.56-95.04-.77-142.27,2.97-45.86,3.63-91.18,13.33-137.32,13.33-3.22,0-4.37,7.82-4.99,9.89-18.5,62.26-52.71,120.26-83.78,176.86-1.65,3.01-3.13,6.25-5,9.13-6.74,10.41-13.48,20.82-20.22,31.23-5.86-.75-11.58-2.11-16.76-4.91-4.76-2.57-8.97-5.8-13.38-8.64-1.13-1.54-1.34-2.27-1.76-3.31-.74-1.94.73-3.96,1.04-6.46Z"/>
      <path class="st25" d="M175.73,1366.04c-.3,5.38-3.75,16.88-8.13,23.55,8.7,7.56,46.62,6.57,55.64.21-.46-4.14-3.86-11.36-2.6-17.82-13.55-.83-31.47-4.69-44.91-5.94Z"/>
    </g>
    <g>
      <path class="st22" d="M572.29,652.74c11.46.68,14.26-9.85,13.41-21.05-.43-5.65-4.86-9.59-14.17-7.36.91,5.13,3.85,8.96,5,14.03,1.19,5.25.79,12.31-4.24,14.38Z"/>
      <g>
        <path class="st25" d="M553.95,899.88c8.66-7.52,19.14-5.52,29.59-2.92,16.26,4.04,30.65,14.11,48.14,13.55,5.43,7.32,6.19,17.29,6.46,26.05-34.36-1.66-70.04-3.55-104.4-5.21-.91-2.23-1.04-6.04,1.67-10.21,5.91-6.73,12.64-14.53,18.55-21.26Z"/>
        <path class="st25" d="M518.26,525.84c-.04-.42-.09-.84-.15-1.26,11.17-5.23,14.78-18.97,23.55-27.09,10.83,19.65,26.55,27.13,47.3,25.63,3.63-.26,8.69-1.08,12.29-1.67,4.99-.82,10.52.66,11.25,5.42.42,2.71-.13,4.64-.9,5.42.73.68.36,1.12.9,1.95,3.86-2.23,6.96-6,10.63-8.61,6.86-4.88,17.15-1.04,20.84,6.67,4.38,9.17,1.3,23.87-8.34,27.09-4.92,1.64-6.75.51-6.25,4.38-.63,10.63,2.71,22.09,4.17,28.97,1.17,3.78,3.45,11.08,4.79,14.8,6.04,16.73,11.1,28.48,29.17,35.84-1.67,23.76-35.07,53.52-68.14,46.47-17.45-3.72-29.8-18.55-28.94-37.33,1.26-.42,1.68-.59,3.62-1.43,3.47-1.35,10.82-7.21,9.97-18.41-.19-2.53-.13-5.58-2.43-7.15-2.08-1.42-5.35-.77-7.64-.63-4.51.28-8.27.56-12.44-1.39-8.63-4.03-14.44-12.16-19.94-19.6-5.65-7.63-11.18-15.54-13.02-25.05-1.74-8.99.3-18.04-3.5-26.66-3.51-7.96-7.77-15.61-7.48-24.58.02-.76.29-1.34.68-1.77Z"/>
      </g>
      <path class="st10" d="M529.71,543.62c-1.51-3.8-3.98-8.09-8.47-7.36-4.31.69-.47,7.26.42,8.4,2.19-1.3,4.84-3.35,8.06-1.04Z"/>
      <path class="st10" d="M547.5,539.57c11.44-6.5,23.29-.16,34.15-5.91-15.23-8.96-28.06-7.32-34.15,5.91Z"/>
      <path class="st10" d="M607.55,523.76c-2.94-1.44-6.11-.71-9.18-.2-3.85.63-7.7,1.1-11.61,1.22-6.03.18-12.13-.29-17.97-1.87-5.54-1.5-10.78-4.02-15.29-7.59-2.37-1.87-4.53-4.01-6.45-6.33-1.11-1.34-2.15-2.74-3.11-4.19-.76-1.14-1.41-3.01-2.47-3.86-.98.29-1.83,1.66-2.51,2.42-.8.9-1.55,1.84-2.28,2.8-1.45,1.91-2.78,3.91-4.13,5.89-2.63,3.89-5.33,7.83-8.92,10.9-1.09.93-2.25,1.75-3.48,2.5-1.3.78-1.99,1.06-3.53.64-2.27-.63-4.46-1.77-6.38-3.12-4.13-2.9-7.14-7.05-9.79-11.27-2.61-4.16-4.87-8.52-6.44-13.18-5.46-16.26-1.78-34.53,11.65-45.78,6.89-5.76,15.49-9.1,24.33-10.34,13.14-1.83,26.4.53,39.59-.33,13.29-.86,26.01-5.09,39.3-5.96,6.62-.43,13.14-.18,19.61,1.38,11.97,2.88,22.86,7.52,31.15,16.48,3.51,3.79,6.79,8.26,9.34,12.48,5.52,9.13,9.27,19.21,12.22,29.43,2.95,10.21,4.81,20.53,10.96,29.46,3.05,4.43,6.89,8.3,11.38,11.28,4.04,2.68,8.52,4.56,12.93,6.52,8.48,3.76,18.36,8.78,20.81,18.61,1.43,5.75,0,11.8-1.41,17.4-.98,3.87-2.51,8.65,2.08,10.69,4.85,2.16,10.89,2.07,16.08,2.3,6.25.27,12.38.71,18.33,2.76,7.43,2.56,13.57,7.43,13.45,15.88-.07,4.79-1.96,9.2-2.97,13.81-1.01,4.61-1.46,9.38-.94,14.09,1.05,9.51,6.32,17.53,13.6,23.52,4.25,3.5,8.88,6.38,12.81,10.29,3.47,3.46,6.49,7.36,8.79,11.69,9.19,17.32,4.56,37.82-3.53,54.58-2.07,4.28-4.3,8.48-6.66,12.61-1.1,1.93-2.23,3.84-3.38,5.74-.66,1.09-1.32,2.17-1.99,3.25-.58.93-1.09,2.34-2.01,2.96-1.73,1.16-4.87-7.49-5.18-8.32-.78-2.07-1.55-4.14-2.35-6.2-11.55-29.83-22.67-60.89-47.79-82.24-16.53-14.05-35.24-16.21-56.12-17.23-3.01-.15-9.12-1-11.95-1.95-3.96-1.33-9.07-2.17-12.81-4.02-3.06-1.51-5.94-3.37-8.56-5.57-10.31-8.64-15.73-21.64-20.03-34.05-.76-2.19-1.8-6.03-3.05-11.24-2.7-11.27-3.96-19.86-3.96-28.13,0-3.33,1.66-5.33,4.02-6.31,2.84-1.18,5.3-2.26,7.42-4.59,3.93-4.3,5.49-10.61,4.41-16.29-1.14-6.02-5.73-12.35-12.41-12.27-3.68.04-6.42,2.11-9.33,4.09-2.88,1.96-6.05,4.39-9.25,5.57l-1.26-2.73c.27-.42.45-.92.48-1.52.13-2.67-1.92-5.44-4.24-6.58Z"/>
      <path class="st12" d="M630.14,556.23c-8.82.04-16.73,29.06.83,28.65,16.86-.39,7.56-28.69-.83-28.65Z"/>
      <path class="st10" d="M508.35,556.12c1.64-4.26,6.13-6.68,11.76-6.59,2.59.04,5.15.32,7.67.94,3.58.87,7.18,2.48,10.94,2.25,5.29-.34,9.42-3.68,13.74-6.3,1.38-.84,2.85-1.54,4.39-2.06,3.33-1.12,7.11-1.29,10.37.14,4.13,1.82,7.21,2.11,11.74.3,12.61-5.03,21.05-8.54,34.65-14.19,0,0,1.89,2.45,1.89,2.45-1.32,1.04-4.05,1.98-5.08,2.44-3.67,1.67-8.19,4.3-11.87,5.96-6.35,2.87-10.77,4.76-17.09,7.71-3.13,1.46-5.23,3.86-4.79,6.88.94,6.51,1.46,14.14-3.29,19.4-7.09,7.85-18.98.89-25.4-6.96-3.75-4.58-4.78-9.88-8.06-9.72-2.92.14-2.36,5.15-2.22,7.78.44,8.82-7,17.09-16.05,13.27-8.11-3.43-17.09-13.87-13.3-23.69ZM549.64,564.6c2.55,4.23,5.9,6.73,9.67,9.12,3.69,2.34,10.1,2.41,12.7-1.62,2.63-4.08,2.67-13.57-1.11-18.62-2.64-3.52-4.2-5.22-9.03-5.28-4.83-.06-12.29,4.1-14.17,7.22-1.88,3.13-.28,5.49,1.94,9.17ZM510.82,562.1c1.11,5.56,3.52,10.08,10,13.96,3.47,2.08,8.11,2.04,10.63,0,2.71-2.19,3.38-7.23,2.92-11.04-.55-4.52-1.77-7.67-5.82-9.87-3.79-2.06-10.82-3.58-14.51-.65-2.43,1.93-3.77,4.82-3.21,7.6Z"/>
    </g>
  </g>
  <g>
    <path class="st28" d="M779.06,975.72c29.84-6.81,45.97-26.81,46.96-57.45.68-21.08-1.81-41.84-5.02-62.59-4.85-31.24-13.46-61.6-21.49-92.1-6.55-16.53-12.66-33.26-19.78-49.54-7.31-16.74-16.67-32.37-30.31-44.92-7.83-7.2-16.22-13.59-27.19-15.29-4.14,2.73-9.1,7.19-11.5,11.76-11.05,21.01-11.02,43.25-12.36,65.99-1.39,23.55.83,49.83,3.61,73.21,3.09,26,7.49,49.21,15.28,74.18,2.71,8.7,1.41,9.81-5.97,12.36-27.14,9.4-55.22,12.66-83.21,17.78,5.56,7.22,7.92,22.22,8.2,30.98,0,9.59,42.09,46.68,142.8,35.61Z"/>
    <path class="st28" d="M527.76,664.9c-10.89,2.21-16.78,12.55-21.36,20.77-11.27,20.22-16.58,42.45-20.57,65.08-4.42,25.07-11,53.98-11.7,79.54,8.16,32.04,17.44,60.21,28.13,91.48,2.2,6.44,8.48,11.42,15.63,10.84,4.94-.4,7.53-.63,12.5-.63,1.38-7.02,8.74-43.27,12.09-58.56.3-11.11-1.08-18.61-10.84-25.98-7.3-5.51-13.34-15.81-17.23-24.45-9.07-20.14-5.81-39.56-.56-60.29,8.24-32.48,16.9-63.63,13.89-97.8Z"/>
    <path class="st28" d="M666.27,644.7c-4.01,22.65-34.37,49.92-67.45,42.86-17.45-3.72-26.67-15.71-28.39-35.06-3.67-.42-7.21-.08-10.5,1.75-2.02,31.35,27.34,53.99,63.83,46.77,28.9-5.72,48.9-26.67,56.69-53.71-4.6-1.57-9.11-3.58-14.18-2.61Z"/>
    <path class="st6" d="M551.83,902.32c8.66-7.52,18.42-7.31,28.88-4.71,16.26,4.04,31.05,13.6,48.53,13.03,27.99-5.12,56.4-8.13,83.54-17.53,7.39-2.56,9.37-4.55,6.66-13.25-7.79-24.98-12.22-50.86-15.31-76.85-2.78-23.38-5.26-46.91-3.87-70.46,1.34-22.74,2.26-45.7,13.31-66.71,2.4-4.57,6.59-7.45,8.67-12.01-13.58-4.37-27.59-6.02-41.78-6.52-10.76,26.91-29.08,46.33-57.98,52.05-36.48,7.23-61.13-12.65-62.54-45.1-11.62,2.94-24.18,3.18-33.87,11.72,3.01,34.17-5.76,68.69-14,101.17-5.26,20.74-8.98,44.96,1.67,62.93,5.52,9.31,12.38,17.62,18.75,24.17,9.25,9.51,10.51,19.78,11.67,27.92.83,5.83,1.78,10.22,2.74,14.07.21.84,3.13,7.65,4.94,6.08Z"/>
  </g>
  <g>
    <path class="st12" d="M224.05,702.18c-16.63-.05-33.27-.2-49.9-.14-15.74.06-19.63,6.29-16.01,21.35,10.93,45.43,19.34,74.6,29.26,116.28,4.82,20.24,11.51,45.7,16.67,65.85,3.96,15.46,6.1,37.65,19.78,38.12,3.31.11,10.67,1.06,13.98,1.06,107.11.05,209.22-1.01,316.33.42,46.89.63,72.52.49,85.23-1.25,1.05-.14,1.88-.89,1.82-1.94-.1-1.71-.23-4.17-.27-5.82,0-.49-.4-.88-.89-.9-34.05-1.65-73-3.29-107.07-4.94-4.97,0-10.56-.38-15.5-.77-8.1-.63-12.18-6.9-14.38-13.34-22.9-67.01-40.11-130.38-61.44-197.89-4.01-12.69-9.08-16.13-21.8-16.14-64.65,0-130.65.11-195.82.07Z"/>
    <path class="st6" d="M315.91,802.12c-4.12-.79-8.29.59-11.63,5.45-6.51,9.47,3.57,27.86,13.05,31.68,9.81,3.95,15.25-6.94,15.55-15.15.32-8.73-8.19-20.29-16.96-21.98Z"/>
  </g>
  <g>
    <rect class="st10" x="14.86" y="944.19" width="749.35" height="35.01" rx="3.36" ry="3.36" transform="translate(779.07 1923.38) rotate(180)"/>
    <path class="st10" d="M701.97,1483.71h0c2.76,0,5-2.24,5-5v-501.23c0-2.76-2.24-5-5-5h0c-2.76,0-5,2.24-5,5v501.23c0,2.76,2.24,5,5,5Z"/>
    <path class="st10" d="M118.5,1483.71h0c2.76,0,5-2.24,5-5v-501.23c0-2.76-2.24-5-5-5h0c-2.76,0-5,2.24-5,5v501.23c0,2.76,2.24,5,5,5Z"/>
    <path class="st10" d="M179.07,972.47c2.76,0,5,2.24,5,5v328.76c-.31,2.29-8.13,46.68-10,50.28v-379.04c0-2.76,2.24-5,5-5Z"/>
  </g>
</svg>